<svg width="19" height="20" viewBox="0 0 19 20" fill="none" xmlns="http://www.w3.org/2000/svg">
<rect width="19" height="20" fill="#1E1E1E"/>
<rect width="19" height="20" rx="5" fill="#E4E0D7"/>
<path d="M7.56055 10.5703C7.26367 10.5703 7.02148 10.5801 6.83398 10.5996L6.85156 9.15234C6.9375 9.17578 7.19531 9.1875 7.625 9.1875H8.80859V8.0625C8.80859 7.63281 8.79688 7.375 8.77344 7.28906L10.2207 7.27148C10.2012 7.45898 10.1914 7.70117 10.1914 7.99805V9.1875H11.3691C11.7949 9.1875 12.0527 9.17578 12.1426 9.15234L12.1602 10.5996C11.9727 10.5801 11.7305 10.5703 11.4336 10.5703H10.1914V11.8711C10.1914 12.168 10.2012 12.4102 10.2207 12.5977L8.77344 12.5801C8.79688 12.4902 8.80859 12.2324 8.80859 11.8066V10.5703H7.56055Z" fill="black"/>
</svg>
