<svg width="719" height="165" viewBox="0 0 719 165" fill="none" xmlns="http://www.w3.org/2000/svg">
<rect width="719" height="165" fill="#1E1E1E"/>
<path d="M719 0H0V165H355.224H719V0Z" fill="white"/>
<path d="M719 0H0V165H355.224H719V0Z" fill="#E4E0D7"/>
<path d="M176.729 104.04H146.813L111.71 67.9356V104.04H90.0182V18.9585H111.71V53.718L144.387 18.9585H170.735L132.398 59.2706L176.729 104.04Z" fill="black"/>
<path d="M171.885 18.9585H199.46C212.711 18.9585 224.031 23.0046 233.42 31.0845C242.823 39.1519 247.528 49.2735 247.528 61.4368C247.528 73.6873 242.844 83.8588 233.476 91.9386C224.121 100.006 212.787 104.04 199.46 104.04H171.885V18.9585ZM193.577 86.7097H196.923C204.855 86.7097 211.345 84.3194 216.384 79.5387C221.438 74.758 224.003 68.7572 224.08 61.5364C224.08 54.3343 221.549 48.3273 216.496 43.5093C211.456 38.6975 204.932 36.2885 196.923 36.2885H193.577V86.7097Z" fill="black"/>
<path d="M248.095 18.9585H282.138C291.297 18.9585 298.769 21.1434 304.555 25.507C310.333 29.8769 313.226 36.1142 313.226 44.2314C313.226 50.4936 311.469 55.7349 307.956 59.9678C304.457 64.1882 299.71 67.1575 293.709 68.8818L326.497 104.04H298.895L269.786 70.4255V104.04H248.095V18.9585ZM269.786 56.7059H272.324C274.331 56.7059 276.018 56.6748 277.398 56.6063C278.792 56.5441 280.367 56.3013 282.138 55.8843C283.922 55.4734 285.351 54.8883 286.432 54.1413C287.505 53.3819 288.425 52.2739 289.192 50.8297C289.952 49.3855 290.335 47.6364 290.335 45.5759C290.335 43.5031 289.952 41.7414 289.192 40.2972C288.425 38.853 287.505 37.7575 286.432 37.0105C285.351 36.2511 283.922 35.6597 282.138 35.2427C280.367 34.8318 278.792 34.5891 277.398 34.5206C276.018 34.4584 274.331 34.421 272.324 34.421H269.786V56.7059Z" fill="black"/>
<path d="M321.763 18.9585H351.318C360.24 18.9585 367.357 20.6641 372.675 24.0629C377.987 27.4679 380.649 32.9893 380.649 40.621C380.649 49.1366 376.676 55.2245 368.744 58.8722C382.294 61.0011 389.069 68.1472 389.069 80.3105C389.069 87.4691 386.295 93.2085 380.761 97.541C375.219 101.873 367.601 104.04 357.898 104.04H321.763V18.9585ZM343.455 52.2738H345.184C350.035 52.2738 353.646 51.5206 356.03 50.008C358.428 48.4829 359.627 45.9992 359.627 42.5631C359.627 36.7864 354.81 33.8981 345.184 33.8981H343.455V52.2738ZM343.455 89.0752H350.286C360.895 89.0752 366.207 85.9129 366.207 79.5885C366.207 75.8225 364.875 73.1146 362.22 71.4713C359.557 69.8155 355.584 68.9813 350.286 68.9813H343.455V89.0752Z" fill="black"/>
<path d="M411.351 18.9585V87.0334H444.167V104.04H389.659V18.9585H411.351Z" fill="black"/>
<path d="M441.598 61.4368C441.598 49.1365 446.289 38.7286 455.678 30.213C465.081 21.6849 476.401 17.4147 489.638 17.4147C502.965 17.4147 514.285 21.6663 523.598 30.1632C532.91 38.6477 537.566 49.0743 537.566 61.4368C537.566 73.8865 532.98 84.363 523.821 92.8599C514.655 101.344 503.258 105.583 489.638 105.583C475.711 105.583 464.224 101.375 455.176 92.9594C446.122 84.531 441.598 74.0235 441.598 61.4368ZM465.047 61.4368C465.047 65.9187 465.813 70.0022 467.361 73.6873C468.901 77.36 471.599 80.46 475.446 82.9997C479.294 85.5394 484.02 86.8093 489.638 86.8093C497.723 86.8093 503.816 84.338 507.928 79.3893C512.055 74.4467 514.118 68.4585 514.118 61.4368C514.118 54.5024 512.013 48.539 507.817 43.5591C503.634 38.5668 497.57 36.0644 489.638 36.0644C481.789 36.0644 475.732 38.5668 471.459 43.5591C467.179 48.539 465.047 54.5024 465.047 61.4368Z" fill="black"/>
<path d="M624.277 56.3822V74.8576C621.824 84.9668 616.429 92.6233 608.106 97.8149C599.797 102.994 590.52 105.583 580.28 105.583C567.434 105.583 556.484 101.295 547.436 92.7105C538.382 84.114 533.858 73.7247 533.858 61.5364C533.858 49.1739 538.277 38.7286 547.129 30.213C555.996 21.6849 567.044 17.4147 580.28 17.4147C595.762 17.4147 608.008 22.2639 617.028 31.956L602.809 45.8747C597.734 38.5917 590.652 34.9439 581.563 34.9439C574.871 34.9439 569.156 37.5459 564.416 42.7374C559.676 47.9165 557.306 54.1849 557.306 61.5364C557.306 68.7572 559.676 74.9323 564.416 80.0616C569.156 85.1908 574.871 87.7555 581.563 87.7555C587.097 87.7555 591.921 86.2615 596.033 83.2736C600.16 80.2732 602.223 76.2955 602.223 71.3468H580.28V56.3822H624.277Z" fill="black"/>
<path d="M538.812 58.2849H524.48C499.952 53.5478 494.494 48.6551 489.183 26.7125V14.4185H487.37V26.8432C482.073 48.6738 476.594 53.554 452.107 58.2849H441.652V59.9034H452.107C476.594 64.6343 482.073 69.5146 487.37 91.3451V103.546H489.183V91.4758C494.494 69.5333 499.952 64.6467 524.48 59.9034H538.812V58.2849Z" fill="#E4E1DA"/>
<path d="M156.091 132.446V142.405H154.641V129.209H155.059L164.762 139.567V129.582H166.212V142.779H165.766L156.091 132.446Z" fill="black"/>
<path d="M182.812 142.605C181.822 142.605 180.895 142.43 180.024 142.082C179.145 141.733 178.386 141.26 177.737 140.662C177.082 140.065 176.566 139.368 176.176 138.571C175.8 137.774 175.618 136.921 175.618 136.006C175.618 135.097 175.8 134.238 176.176 133.442C176.566 132.632 177.082 131.923 177.737 131.325C178.386 130.728 179.145 130.267 180.024 129.931C180.895 129.582 181.822 129.408 182.812 129.408C183.795 129.408 184.715 129.582 185.572 129.931C186.443 130.267 187.203 130.728 187.858 131.325C188.507 131.923 189.015 132.62 189.392 133.417C189.782 134.214 189.977 135.079 189.977 136.006C189.977 136.903 189.782 137.749 189.392 138.546C189.015 139.343 188.507 140.04 187.858 140.638C187.203 141.235 186.443 141.721 185.572 142.082C184.715 142.43 183.795 142.605 182.812 142.605ZM182.812 141.285C183.592 141.285 184.324 141.154 185.014 140.887C185.698 140.606 186.283 140.233 186.771 139.766C187.273 139.305 187.663 138.745 187.942 138.098C188.221 137.45 188.36 136.753 188.36 136.006C188.36 135.247 188.221 134.55 187.942 133.915C187.663 133.267 187.273 132.713 186.771 132.246C186.283 131.767 185.698 131.394 185.014 131.126C184.324 130.865 183.592 130.728 182.812 130.728C182.01 130.728 181.264 130.865 180.581 131.126C179.912 131.394 179.327 131.767 178.825 132.246C178.337 132.713 177.946 133.267 177.654 133.915C177.375 134.55 177.235 135.247 177.235 136.006C177.235 136.753 177.375 137.45 177.654 138.098C177.946 138.745 178.337 139.305 178.825 139.766C179.327 140.233 179.912 140.606 180.581 140.887C181.264 141.154 182.01 141.285 182.812 141.285Z" fill="black"/>
<path d="M202.824 130.827H198.112V129.582H209.042V130.827H204.33V142.405H202.824V130.827Z" fill="black"/>
<path d="M229.159 129.582H236.548V130.827H230.665V135.135H235.154V136.38H230.665V141.16H236.659V142.405H229.159V129.582Z" fill="black"/>
<path d="M245.007 129.582H246.597L250.5 139.617L254.654 129.582H256.132L250.639 142.779H250.221L245.007 129.582Z" fill="black"/>
<path d="M265.134 129.582H272.522V130.827H266.639V135.135H271.128V136.38H266.639V141.16H272.634V142.405H265.134V129.582Z" fill="black"/>
<path d="M283.714 132.446V142.405H282.264V129.209H282.682L292.385 139.567V129.582H293.835V142.779H293.389L283.714 132.446Z" fill="black"/>
<path d="M313.958 129.582H315.547L319.172 139.393L323.187 129.582H323.605L327.648 139.243L331.245 129.582H332.75L327.843 142.779H327.536L323.354 132.745L319.283 142.779H318.837L313.958 129.582Z" fill="black"/>
<path d="M348.058 142.605C347.068 142.605 346.141 142.43 345.27 142.082C344.392 141.733 343.632 141.26 342.984 140.662C342.328 140.065 341.813 139.368 341.422 138.571C341.046 137.774 340.864 136.921 340.864 136.006C340.864 135.097 341.046 134.238 341.422 133.442C341.813 132.632 342.328 131.923 342.984 131.325C343.632 130.728 344.392 130.267 345.27 129.931C346.141 129.582 347.068 129.408 348.058 129.408C349.041 129.408 349.961 129.582 350.818 129.931C351.69 130.267 352.449 130.728 353.105 131.325C353.753 131.923 354.262 132.62 354.638 133.417C355.028 134.214 355.224 135.079 355.224 136.006C355.224 136.903 355.028 137.749 354.638 138.546C354.262 139.343 353.753 140.04 353.105 140.638C352.449 141.235 351.69 141.721 350.818 142.082C349.961 142.43 349.041 142.605 348.058 142.605ZM348.058 141.285C348.839 141.285 349.57 141.154 350.261 140.887C350.944 140.606 351.529 140.233 352.017 139.766C352.519 139.305 352.909 138.745 353.188 138.098C353.467 137.45 353.606 136.753 353.606 136.006C353.606 135.247 353.467 134.55 353.188 133.915C352.909 133.267 352.519 132.713 352.017 132.246C351.529 131.767 350.944 131.394 350.261 131.126C349.57 130.865 348.839 130.728 348.058 130.728C347.256 130.728 346.511 130.865 345.827 131.126C345.158 131.394 344.573 131.767 344.071 132.246C343.583 132.713 343.193 133.267 342.9 133.915C342.621 134.55 342.482 135.247 342.482 136.006C342.482 136.753 342.621 137.45 342.9 138.098C343.193 138.745 343.583 139.305 344.071 139.766C344.573 140.233 345.158 140.606 345.827 140.887C346.511 141.154 347.256 141.285 348.058 141.285Z" fill="black"/>
<path d="M364.641 129.582H368.07C368.775 129.582 369.437 129.682 370.05 129.881C370.664 130.068 371.179 130.323 371.611 130.653C372.058 130.989 372.399 131.387 372.643 131.848C372.88 132.315 373.006 132.819 373.006 133.367C373.006 133.815 372.922 134.232 372.755 134.612C372.601 134.998 372.378 135.346 372.085 135.658C371.807 135.975 371.458 136.249 371.054 136.479C370.664 136.697 370.231 136.865 369.771 136.977L373.842 142.405H372.058L368.07 137.127H366.147V142.405H364.641V129.582ZM368.07 135.882C369.088 135.882 369.918 135.658 370.552 135.21C371.179 134.749 371.5 134.126 371.5 133.342C371.5 132.583 371.179 131.973 370.552 131.524C369.918 131.064 369.088 130.827 368.07 130.827H366.147V135.882H368.07Z" fill="black"/>
<path d="M386.486 130.827H381.774V129.582H392.703V130.827H387.992V142.405H386.486V130.827Z" fill="black"/>
<path d="M401.686 129.582H403.192V135.334H410.887V129.582H412.393V142.405H410.887V136.579H403.192V142.405H401.686V129.582Z" fill="black"/>
<path d="M433.806 129.582H437.235C437.939 129.582 438.602 129.682 439.215 129.881C439.828 130.068 440.344 130.323 440.776 130.653C441.222 130.989 441.564 131.387 441.808 131.848C442.045 132.315 442.17 132.819 442.17 133.367C442.17 133.815 442.087 134.232 441.919 134.612C441.766 134.998 441.543 135.346 441.25 135.658C440.972 135.975 440.623 136.249 440.219 136.479C439.828 136.697 439.396 136.865 438.936 136.977L443.007 142.405H441.222L437.235 137.127H435.312V142.405H433.806V129.582ZM437.235 135.882C438.253 135.882 439.083 135.658 439.717 135.21C440.344 134.749 440.665 134.126 440.665 133.342C440.665 132.583 440.344 131.973 439.717 131.524C439.083 131.064 438.253 130.827 437.235 130.827H435.312V135.882H437.235Z" fill="black"/>
<path d="M452.221 129.582H459.61V130.827H453.727V135.135H458.216V136.38H453.727V141.16H459.722V142.405H452.221V129.582Z" fill="black"/>
<path d="M473.534 129.209H473.953L479.417 142.405H477.772L476.434 139.044H470.969L469.631 142.405H468.069L473.534 129.209ZM475.932 137.799L473.702 132.246L471.471 137.799H475.932Z" fill="black"/>
<path d="M488.41 129.582H493.094C494.188 129.582 495.199 129.75 496.133 130.08C497.06 130.398 497.862 130.846 498.531 131.425C499.214 131.991 499.758 132.664 500.148 133.442C500.538 134.226 500.733 135.079 500.733 136.006C500.733 136.921 500.538 137.768 500.148 138.546C499.758 139.33 499.214 140.009 498.531 140.588C497.862 141.154 497.06 141.602 496.133 141.932C495.199 142.25 494.188 142.405 493.094 142.405H488.41V129.582ZM493.094 141.16C493.944 141.16 494.746 141.036 495.492 140.787C496.231 140.526 496.872 140.164 497.416 139.716C497.952 139.256 498.371 138.708 498.67 138.073C498.963 137.444 499.116 136.753 499.116 136.006C499.116 135.247 498.963 134.55 498.67 133.915C498.371 133.286 497.952 132.744 497.416 132.296C496.872 131.836 496.231 131.475 495.492 131.226C494.746 130.964 493.944 130.827 493.094 130.827H489.915V141.16H493.094Z" fill="black"/>
<path d="M510.144 129.582H511.65V142.405H510.144V129.582Z" fill="black"/>
<path d="M523.371 132.446V142.405H521.922V129.209H522.34L532.043 139.567V129.582H533.492V142.779H533.046L523.371 132.446Z" fill="black"/>
<path d="M550.009 142.605C549.019 142.605 548.092 142.437 547.221 142.107C546.363 141.758 545.61 141.297 544.962 140.712C544.328 140.115 543.826 139.418 543.457 138.621C543.08 137.824 542.899 136.971 542.899 136.056C542.899 135.147 543.08 134.282 543.457 133.467C543.847 132.657 544.363 131.948 545.018 131.35C545.666 130.74 546.426 130.267 547.304 129.931C548.175 129.582 549.103 129.408 550.092 129.408C551.152 129.408 552.142 129.607 553.076 130.006C554.003 130.404 554.804 130.952 555.473 131.649L554.358 132.495C553.8 131.935 553.145 131.5 552.406 131.201C551.661 130.889 550.88 130.728 550.064 130.728C549.263 130.728 548.531 130.865 547.862 131.126C547.193 131.394 546.607 131.767 546.105 132.246C545.603 132.713 545.213 133.267 544.934 133.915C544.655 134.55 544.516 135.247 544.516 136.006C544.516 136.753 544.655 137.45 544.934 138.098C545.213 138.745 545.603 139.305 546.105 139.766C546.607 140.233 547.193 140.606 547.862 140.887C548.545 141.154 549.291 141.285 550.092 141.285C550.998 141.285 551.821 141.129 552.546 140.812C553.285 140.482 553.912 140.052 554.414 139.517V136.753H550.092V135.533H555.919V139.766C555.209 140.681 554.344 141.385 553.327 141.883C552.302 142.368 551.194 142.605 550.009 142.605Z" fill="black"/>
</svg>
