<svg width="22" height="22" viewBox="0 0 22 22" fill="none" xmlns="http://www.w3.org/2000/svg">
<rect width="22" height="22" fill="#1E1E1E"/>
<rect width="22" height="22" rx="5" fill="#E4E0D7"/>
<g clip-path="url(#clip0_0_1)">
<path d="M18.1763 9.22222H16.6794C16.4388 9.22222 16.2406 9.08978 16.1484 8.86756C16.0563 8.64533 16.1031 8.41126 16.2729 8.24118L17.3313 7.18311C17.4868 7.02756 17.5724 6.82044 17.5724 6.60059C17.5724 6.38044 17.4868 6.17363 17.3313 6.01778L15.9822 4.66874C15.6711 4.35763 15.1286 4.35704 14.8169 4.66874L13.7588 5.72681C13.5887 5.89659 13.3541 5.944 13.1324 5.85156C12.9102 5.75941 12.7778 5.56119 12.7778 5.32059V3.8237C12.7778 3.36948 12.4083 3 11.9541 3H10.0459C9.5917 3 9.22222 3.36948 9.22222 3.8237V5.32059C9.22222 5.56119 9.08978 5.75941 8.86756 5.85156C8.64593 5.9443 8.41126 5.89659 8.24118 5.72681L7.18311 4.66874C6.87141 4.35704 6.32889 4.35763 6.01778 4.66874L4.66874 6.01778C4.51319 6.17333 4.42756 6.38044 4.42756 6.60059C4.42756 6.82044 4.51319 7.02726 4.66874 7.18311L5.72711 8.24118C5.89689 8.41126 5.94341 8.64533 5.85156 8.86756C5.7597 9.08978 5.56119 9.22222 5.32059 9.22222H3.8237C3.36948 9.22222 3 9.5917 3 10.0459V11.9538C3 12.4083 3.36948 12.7778 3.8237 12.7778H5.32059C5.56119 12.7778 5.75941 12.9102 5.85156 13.1324C5.9437 13.3547 5.89689 13.5887 5.72711 13.7588L4.66874 14.8169C4.51319 14.9724 4.42756 15.1796 4.42756 15.3994C4.42756 15.6196 4.51319 15.8264 4.66874 15.9822L6.01778 17.3313C6.32919 17.6427 6.87141 17.6433 7.18311 17.3313L8.24118 16.2729C8.41126 16.1031 8.64504 16.0563 8.86756 16.1484C9.08978 16.2406 9.22222 16.4388 9.22222 16.6794V18.1763C9.22222 18.6305 9.5917 19 10.0459 19H11.9538C12.408 19 12.7775 18.6305 12.7775 18.1763V16.6794C12.7775 16.4388 12.9099 16.2406 13.1321 16.1484C13.3547 16.056 13.5884 16.1031 13.7585 16.2729L14.8166 17.3313C15.1283 17.643 15.6708 17.6424 15.9819 17.3313L17.331 15.9822C17.4865 15.8267 17.5721 15.6196 17.5721 15.3994C17.5721 15.1796 17.4865 14.9727 17.331 14.8169L16.2726 13.7588C16.1028 13.5887 16.0563 13.3547 16.1481 13.1324C16.24 12.9102 16.4388 12.7778 16.6794 12.7778H18.1763C18.6305 12.7778 19 12.4083 19 11.9541V10.0459C19 9.5917 18.6305 9.22222 18.1763 9.22222ZM18.4074 11.9541C18.4074 12.0815 18.3037 12.1852 18.1763 12.1852H16.6794C16.1982 12.1852 15.7849 12.4613 15.6009 12.9058C15.4166 13.3502 15.5135 13.8379 15.8539 14.1781L16.9123 15.2361C17.0027 15.3265 17.0027 15.4732 16.9123 15.5633L15.5633 16.9123C15.4732 17.0024 15.3265 17.003 15.2361 16.9123L14.1781 15.8539C13.8376 15.5135 13.3502 15.4172 12.9058 15.6009C12.4613 15.7849 12.1852 16.1982 12.1852 16.6794V18.1763C12.1852 18.3037 12.0815 18.4074 11.9541 18.4074H10.0459C9.91852 18.4074 9.81481 18.3037 9.81481 18.1763V16.6794C9.81481 16.1982 9.53867 15.7849 9.09422 15.6009C8.94519 15.539 8.7917 15.5087 8.64 15.5087C8.33956 15.5087 8.0483 15.6273 7.82193 15.8536L6.76385 16.912C6.67319 17.0027 6.52652 17.0021 6.43674 16.912L5.0877 15.563C4.99733 15.4726 4.99733 15.3259 5.0877 15.2359L6.14607 14.1778C6.48622 13.8376 6.58341 13.3499 6.39911 12.9055C6.21511 12.4613 5.80178 12.1852 5.32059 12.1852H3.8237C3.6963 12.1852 3.59259 12.0815 3.59259 11.9541V10.0459C3.59259 9.91852 3.6963 9.81481 3.8237 9.81481H5.32059C5.80178 9.81481 6.21511 9.53867 6.39911 9.09422C6.58341 8.64978 6.48652 8.16207 6.14607 7.82193L5.0877 6.76385C4.99733 6.67348 4.99733 6.52681 5.0877 6.43674L6.43674 5.0877C6.52681 4.99733 6.67348 4.99733 6.76385 5.0877L7.82193 6.14578C8.16178 6.48563 8.64919 6.58311 9.09422 6.39881C9.53867 6.21511 9.81481 5.80178 9.81481 5.32059V3.8237C9.81481 3.6963 9.91852 3.59259 10.0459 3.59259H11.9538C12.0815 3.59259 12.1852 3.6963 12.1852 3.8237V5.32059C12.1852 5.80178 12.4613 6.21511 12.9058 6.39911C13.3508 6.58341 13.8379 6.48622 14.1781 6.14607L15.2361 5.088C15.3268 4.99763 15.4735 4.99763 15.5633 5.088L16.9123 6.43704C17.0027 6.52741 17.0027 6.67407 16.9123 6.76415L15.8539 7.82222C15.5138 8.16237 15.4166 8.65007 15.6009 9.09452C15.7849 9.53896 16.1982 9.81511 16.6794 9.81511H18.1763C18.3037 9.81481 18.4074 9.91852 18.4074 10.0459V11.9541Z" fill="black"/>
<path d="M11 8.33334C9.52949 8.33334 8.33334 9.52949 8.33334 11C8.33334 12.4705 9.52949 13.6667 11 13.6667C12.4705 13.6667 13.6667 12.4705 13.6667 11C13.6667 9.52949 12.4705 8.33334 11 8.33334ZM11 13.0741C9.8566 13.0741 8.92594 12.1434 8.92594 11C8.92594 9.8566 9.8566 8.92594 11 8.92594C12.1434 8.92594 13.0741 9.8566 13.0741 11C13.0741 12.1434 12.1434 13.0741 11 13.0741Z" fill="black"/>
</g>
<defs>
<clipPath id="clip0_0_1">
<rect width="16" height="16" fill="white" transform="translate(3 3)"/>
</clipPath>
</defs>
</svg>
