<svg width="46" height="19" viewBox="0 0 46 19" fill="none" xmlns="http://www.w3.org/2000/svg">
<rect width="46" height="19" fill="#1E1E1E"/>
<rect width="46" height="19" rx="5" fill="#E4E0D7"/>
<path d="M6.78866 5.9L6.59666 6.704L5.90066 6.5C5.40466 6.38 4.97666 6.32 4.61666 6.32C3.67266 6.32 3.20066 6.74 3.20066 7.58C3.20066 7.948 3.34466 8.252 3.63266 8.492C3.92066 8.724 4.26866 8.912 4.67666 9.056C5.09266 9.192 5.50466 9.344 5.91266 9.512C6.32866 9.672 6.68066 9.924 6.96866 10.268C7.25666 10.604 7.40066 11.032 7.40066 11.552C7.40066 12.344 7.15666 12.964 6.66866 13.412C6.18066 13.852 5.48866 14.072 4.59266 14.072C4.14466 14.072 3.69266 14.008 3.23666 13.88C2.78866 13.744 2.42066 13.588 2.13266 13.412L2.43266 12.728C3.16066 13.064 3.84866 13.232 4.49666 13.232C5.15266 13.232 5.64866 13.1 5.98466 12.836C6.32866 12.572 6.50066 12.188 6.50066 11.684C6.50066 11.172 6.22466 10.772 5.67266 10.484C5.42466 10.356 5.14866 10.236 4.84466 10.124C4.54866 10.012 4.24866 9.892 3.94466 9.764C3.64866 9.628 3.37666 9.476 3.12866 9.308C2.88866 9.14 2.68866 8.912 2.52866 8.624C2.37666 8.336 2.30066 8 2.30066 7.616C2.30066 6.928 2.50466 6.4 2.91266 6.032C3.32866 5.664 3.88466 5.48 4.58066 5.48C5.27666 5.48 6.01266 5.62 6.78866 5.9ZM10.074 14H9.17403V5.6H10.074V14ZM15.5081 14.072C14.3481 14.072 13.4241 13.68 12.7361 12.896C12.0561 12.112 11.7161 11.068 11.7161 9.764C11.7161 8.452 12.0401 7.412 12.6881 6.644C13.3361 5.868 14.2401 5.48 15.4001 5.48C16.1361 5.48 16.8841 5.624 17.6441 5.912L17.4281 6.656C17.1561 6.544 16.8001 6.452 16.3601 6.38C15.9201 6.3 15.5801 6.26 15.3401 6.26C14.5001 6.26 13.8361 6.568 13.3481 7.184C12.8601 7.8 12.6161 8.632 12.6161 9.68C12.6161 10.728 12.8721 11.592 13.3841 12.272C13.9041 12.952 14.5681 13.292 15.3761 13.292C15.9441 13.292 16.4801 13.212 16.9841 13.052V10.52H15.2321V9.74H17.8841V13.424C17.1321 13.856 16.3401 14.072 15.5081 14.072ZM25.9779 14.012H24.9939L20.9499 7.28V14H20.0139V5.6H20.9499L25.0779 12.584V5.6H25.9779V14.012ZM36.1984 13.28C35.7104 13.808 34.9944 14.072 34.0504 14.072C33.1064 14.072 32.3864 13.808 31.8904 13.28C31.4024 12.744 31.1584 11.952 31.1584 10.904V5.6H32.0704V11.048C32.0704 11.76 32.2384 12.312 32.5744 12.704C32.9184 13.096 33.4024 13.292 34.0264 13.292C34.6584 13.292 35.1504 13.1 35.5024 12.716C35.8544 12.324 36.0304 11.768 36.0304 11.048V5.6H36.9424V10.904C36.9424 11.952 36.6944 12.744 36.1984 13.28ZM41.2512 10.472H40.0272V14H39.1272V5.6H41.5272C42.4232 5.6 43.0712 5.796 43.4712 6.188C43.8792 6.58 44.0832 7.192 44.0832 8.024C44.0832 8.848 43.8352 9.464 43.3392 9.872C42.8432 10.272 42.1472 10.472 41.2512 10.472ZM41.1192 6.368H40.0272V9.704H40.8192C41.6432 9.704 42.2432 9.58 42.6192 9.332C42.9952 9.084 43.1832 8.66 43.1832 8.06C43.1832 7.452 43.0192 7.02 42.6912 6.764C42.3632 6.5 41.8392 6.368 41.1192 6.368Z" fill="black"/>
</svg>
