<svg width="92" height="20" viewBox="0 0 92 20" fill="none" xmlns="http://www.w3.org/2000/svg">
<rect width="92" height="20" fill="#1E1E1E"/>
<rect width="92" height="20" rx="5" fill="#E4E0D7"/>
<path d="M16.7441 6.14062L16.6328 7.86328L16.5918 7.875C16.3027 7.44141 15.8105 7.16016 15.1152 7.03125C14.8965 6.98828 14.6855 6.9668 14.4824 6.9668C14.2832 6.9668 14.1113 6.98438 13.9668 7.01953C13.8262 7.05469 13.7051 7.10547 13.6035 7.17188C13.3887 7.3125 13.2812 7.49609 13.2812 7.72266C13.2812 8.01953 13.375 8.24219 13.5625 8.39062C13.7969 8.57031 14.1855 8.69727 14.7285 8.77148C15.2715 8.8418 15.707 8.93945 16.0352 9.06445C16.3633 9.18945 16.6328 9.34766 16.8438 9.53906C17.2422 9.89844 17.4414 10.4062 17.4414 11.0625C17.4414 11.9219 17.1172 12.584 16.4688 13.0488C15.9141 13.4473 15.2148 13.6465 14.3711 13.6465C13.6914 13.6465 13.0195 13.5176 12.3555 13.2598C12.1367 13.1738 11.9453 13.0742 11.7812 12.9609L11.8457 11.0039L11.8691 10.9863C12.3535 11.8223 13.1484 12.2402 14.2539 12.2402C15.0391 12.2402 15.5586 12.0508 15.8125 11.6719C15.8984 11.543 15.9414 11.4004 15.9414 11.2441C15.9414 11.084 15.916 10.9531 15.8652 10.8516C15.8145 10.7461 15.7305 10.6562 15.6133 10.582C15.3867 10.4336 15.0059 10.334 14.4707 10.2832C13.9355 10.2324 13.498 10.1367 13.1582 9.99609C12.8184 9.85547 12.5469 9.68164 12.3438 9.47461C11.9766 9.09961 11.793 8.57617 11.793 7.9043C11.793 7.20898 12.0371 6.64648 12.5254 6.2168C13.0215 5.7793 13.6895 5.56055 14.5293 5.56055C15.373 5.56055 16.1113 5.75391 16.7441 6.14062ZM19.2168 5.68359C19.6074 5.69922 19.8438 5.70703 19.9258 5.70703H20.3477C20.5547 5.70703 20.7207 5.69141 20.8457 5.66016L20.8398 13.5H19.2168V5.68359ZM29.4648 8.80078C29.3906 8.93359 29.3535 9.25195 29.3535 9.75586V11.5723C29.3535 12.123 29.0684 12.6016 28.498 13.0078C27.9082 13.4336 27.1855 13.6465 26.3301 13.6465C25.1426 13.6465 24.1953 13.2734 23.4883 12.5273C22.8047 11.8164 22.4629 10.9102 22.4629 9.80859C22.4629 8.63672 22.8105 7.66016 23.5059 6.87891C24.2832 6 25.3535 5.56055 26.7168 5.56055C27.627 5.56055 28.3477 5.73633 28.8789 6.08789L28.7852 7.81641L28.7383 7.82812C28.6016 7.58984 28.332 7.39453 27.9297 7.24219C27.5469 7.09766 27.1445 7.02539 26.7227 7.02539C26.3047 7.02539 25.9375 7.0918 25.6211 7.22461C25.3086 7.35742 25.043 7.54688 24.8242 7.79297C24.3633 8.29688 24.1328 8.96289 24.1328 9.79102C24.1328 10.5137 24.3359 11.0938 24.7422 11.5312C25.1484 11.9648 25.6719 12.1816 26.3125 12.1816C27.0195 12.1816 27.4961 11.998 27.7422 11.6309C27.8203 11.5137 27.8594 11.3809 27.8594 11.2324V10.2598H27.1035C26.6973 10.2598 26.4766 10.2949 26.4414 10.3652L26.4238 10.3594L26.3711 8.83008C26.4805 8.86133 26.9238 8.87695 27.7012 8.87695H28.3926C28.8223 8.87695 29.1738 8.84766 29.4473 8.78906L29.4648 8.80078ZM31.0879 13.5C31.1113 13.3672 31.123 13.2227 31.123 13.0664V5.70703H32.2949L35.4004 10.5938V6.10547C35.4004 5.89062 35.3809 5.75781 35.3418 5.70703H36.9238C36.9043 5.86328 36.8945 6.03516 36.8945 6.22266V13.5H35.6758L32.6172 8.80664V13.5H31.0879ZM43.1699 5.68359C43.5605 5.69922 43.7969 5.70703 43.8789 5.70703H44.3008C44.5078 5.70703 44.6738 5.69141 44.7988 5.66016L44.793 13.5H43.1699V5.68359ZM47.0488 13.5C47.0723 13.3672 47.084 13.2227 47.084 13.0664V5.70703H48.2559L51.3613 10.5938V6.10547C51.3613 5.89062 51.3418 5.75781 51.3027 5.70703H52.8848C52.8652 5.86328 52.8555 6.03516 52.8555 6.22266V13.5H51.6367L48.5781 8.80664V13.5H47.0488ZM61.4512 4.53516H62.9512L59.4414 14.4961H57.9414L61.4512 4.53516ZM72.3906 5.67773C72.6328 5.69727 72.834 5.70703 72.9941 5.70703H73.4805C73.6445 5.70703 73.8164 5.69141 73.9961 5.66016V10.5059C73.9961 11.4668 73.7051 12.2383 73.123 12.8203C72.5723 13.3711 71.8809 13.6465 71.0488 13.6465C70.1387 13.6465 69.4023 13.4102 68.8398 12.9375C68.2109 12.4062 67.8965 11.6406 67.8965 10.6406V5.67773C68.2207 5.69727 68.5254 5.70703 68.8105 5.70703C69.0996 5.70703 69.3379 5.69141 69.5254 5.66016V10.7168C69.5254 11.209 69.6758 11.5918 69.9766 11.8652C70.2578 12.1152 70.6094 12.2402 71.0312 12.2402C71.6562 12.2402 72.0723 11.9199 72.2793 11.2793C72.3535 11.0488 72.3906 10.7637 72.3906 10.4238V5.67773ZM75.8535 5.66602C76.3965 5.5957 76.9531 5.56055 77.5234 5.56055C78.5859 5.56055 79.3926 5.81055 79.9434 6.31055C80.498 6.80664 80.7754 7.55078 80.7754 8.54297C80.7754 9.42969 80.4727 10.1309 79.8672 10.6465C79.3008 11.1309 78.5723 11.373 77.6816 11.373C77.5801 11.373 77.4688 11.3672 77.3477 11.3555V13.5H75.8535V5.66602ZM77.6992 6.97266C77.582 6.97266 77.4648 6.97656 77.3477 6.98438V10.0664C77.4727 10.082 77.625 10.0898 77.8047 10.0898C77.9844 10.0898 78.1719 10.0527 78.3672 9.97852C78.5625 9.90039 78.7266 9.79297 78.8594 9.65625C79.1367 9.37109 79.2754 8.99609 79.2754 8.53125C79.2754 7.49219 78.75 6.97266 77.6992 6.97266Z" fill="black"/>
</svg>
